<svg width="13" height="13" viewBox="0 0 13 13" fill="none" xmlns="http://www.w3.org/2000/svg">
<g id="Icons" clip-path="url(#clip0_30_3963)">
<path id="Vector" d="M3.77317 4.22546H10.0095V9.30738C10.0095 9.60928 9.76472 9.85405 9.46318 9.85405H8.83853V11.4018C8.83853 11.7948 8.52504 12.1133 8.13807 12.1133C7.7501 12.1133 7.43707 11.7948 7.43707 11.4018V9.85405H6.34611V11.4018C6.34611 11.7948 6.032 12.1133 5.64504 12.1133C5.25816 12.1133 4.94407 11.7948 4.94407 11.4018V9.85405H4.31997C4.01837 9.85405 3.77314 9.60928 3.77314 9.30738L3.77317 4.22546ZM2.55106 4.18398C2.16015 4.18398 1.84351 4.50555 1.84351 4.90252V7.71076C1.84351 8.10727 2.16015 8.4294 2.55106 8.4294C2.94205 8.4294 3.25862 8.10727 3.25862 7.71076V4.90252C3.25862 4.50555 2.94205 4.18398 2.55106 4.18398ZM10.0095 3.71336H3.77317C3.85013 2.82489 4.42646 2.06034 5.25613 1.61765L4.66319 0.747012C4.58323 0.629603 4.6134 0.469405 4.73104 0.389467C4.84854 0.309529 5.00842 0.339929 5.08877 0.457245L5.73502 1.40683C6.09333 1.28293 6.48226 1.21179 6.89132 1.21179C7.30087 1.21179 7.68983 1.28293 8.04811 1.40699L8.69436 0.45759C8.77373 0.339952 8.93411 0.309552 9.05161 0.38949C9.16925 0.469428 9.19942 0.629626 9.11945 0.747035L8.527 1.61767C9.35664 2.06008 9.93258 2.82464 10.0095 3.71336ZM5.92094 2.50613C5.92094 2.3156 5.76666 2.16107 5.5762 2.16107C5.38526 2.16107 5.23098 2.3156 5.23098 2.50613C5.23098 2.69657 5.38577 2.85103 5.5762 2.85103C5.76664 2.85103 5.92094 2.69657 5.92094 2.50613ZM8.59538 2.50613C8.59538 2.3156 8.44057 2.16107 8.25016 2.16107C8.05921 2.16107 7.90539 2.3156 7.90539 2.50613C7.90539 2.69657 8.05921 2.85103 8.25016 2.85103C8.44059 2.85103 8.59538 2.69657 8.59538 2.50613ZM11.2321 4.18299C10.8416 4.18299 10.524 4.50504 10.524 4.90204V7.71127C10.524 8.10826 10.8416 8.43041 11.2321 8.43041C11.6231 8.43041 11.9391 8.10829 11.9391 7.71127V4.90204C11.9391 4.50504 11.6231 4.18299 11.2321 4.18299Z" fill="#C9C9C9"/>
</g>
<defs>
<clipPath id="clip0_30_3963">
<rect width="11.9135" height="11.9135" fill="white" transform="translate(0.93457 0.199829)"/>
</clipPath>
</defs>
</svg>
