<svg width="12" height="13" viewBox="0 0 12 13" fill="none" xmlns="http://www.w3.org/2000/svg">
<g id="Icons" clip-path="url(#clip0_30_3969)">
<path id="apple-[#173]" fill-rule="evenodd" clip-rule="evenodd" d="M7.86075 2.09273C8.29793 1.58893 8.59262 0.887245 8.51197 0.189087C7.88197 0.212936 7.11978 0.589236 6.66805 1.09244C6.26239 1.539 5.90828 2.25253 6.00348 2.93698C6.70625 2.98885 7.42356 2.59712 7.86075 2.09273ZM9.43666 6.52389C9.45425 8.32861 11.0981 8.92895 11.1163 8.9367C11.1029 8.97903 10.8537 9.79212 10.2504 10.6328C9.72832 11.359 9.18684 12.0822 8.3337 12.0977C7.49572 12.1126 7.22589 11.6243 6.26724 11.6243C5.3092 11.6243 5.00967 12.0821 4.21655 12.1125C3.39312 12.1418 2.76554 11.3269 2.23983 10.6031C1.16416 9.12269 0.342549 6.4196 1.44612 4.59521C1.99426 3.68957 2.97352 3.11519 4.03707 3.10088C4.84534 3.08598 5.60874 3.61908 6.10292 3.61908C6.5971 3.61908 7.52483 2.97815 8.49984 3.07235C8.90792 3.08845 10.0539 3.22911 10.7894 4.25518C10.73 4.29036 9.42211 5.01548 9.43666 6.52389Z" fill="#C9C9C9"/>
</g>
<defs>
<clipPath id="clip0_30_3969">
<rect width="11.9135" height="11.9135" fill="white" transform="translate(0.0625 0.199829)"/>
</clipPath>
</defs>
</svg>
