<svg width="130" height="38" viewBox="0 0 130 38" fill="none" xmlns="http://www.w3.org/2000/svg">
<g id="applestore" clip-path="url(#clip0_30_5238)">
<g id="Clip path group">
<mask id="mask0_30_5238" style="mask-type:luminance" maskUnits="userSpaceOnUse" x="0" y="0" width="130" height="39">
<g id="clip0_146_4610">
<path id="Vector" d="M129.726 0.684326H0.674072V38.0083H129.726V0.684326Z" fill="white"/>
</g>
</mask>
<g mask="url(#mask0_30_5238)">
<g id="Group">
<path id="Vector_2" d="M124.668 1.00073H5.73749C3.11714 1.00073 0.99292 3.12495 0.99292 5.7453V32.9475C0.99292 35.5679 3.11714 37.6921 5.73749 37.6921H124.668C127.288 37.6921 129.413 35.5679 129.413 32.9475V5.7453C129.413 3.12495 127.288 1.00073 124.668 1.00073Z" fill="black" stroke="#A5A5A5" stroke-width="1.09223"/>
<path id="Vector_3" d="M29.5103 19.1449C29.4825 16.1376 32.0359 14.6745 32.1526 14.6063C30.7066 12.5507 28.4652 12.2699 27.6776 12.2475C25.7951 12.0543 23.9691 13.3457 23.0102 13.3457C22.0321 13.3457 20.5554 12.2661 18.9639 12.2978C16.9158 12.3286 14.9999 13.4847 13.9491 15.28C11.7804 18.9406 13.3978 24.3199 15.4755 27.2788C16.5149 28.7278 17.7293 30.3459 19.3189 30.2889C20.8741 30.2264 21.455 29.3222 23.3317 29.3222C25.1912 29.3222 25.7367 30.2889 27.3579 30.2526C29.027 30.2264 30.0778 28.7969 31.0808 27.3348C32.2818 25.6739 32.7641 24.0381 32.7833 23.9541C32.7441 23.9411 29.5419 22.7495 29.5103 19.1449Z" fill="white"/>
<path id="Vector_4" d="M26.4474 10.301C27.2838 9.28118 27.8561 7.89361 27.6973 6.4856C26.4867 6.53785 24.9727 7.30206 24.1008 8.29956C23.3294 9.17851 22.6403 10.6192 22.8184 11.9741C24.1783 12.073 25.5746 11.305 26.4474 10.301Z" fill="white"/>
<path id="Vector_5" d="M52.0173 30.0809H49.8439L48.6534 26.4334H44.5152L43.3811 30.0809H41.2651L45.365 17.6632H47.8973L52.0173 30.0809ZM48.2945 24.9031L47.2178 21.6606C47.1039 21.3294 46.8905 20.5493 46.5756 19.3213H46.5374C46.412 19.8494 46.2101 20.6295 45.9325 21.6606L44.875 24.9031H48.2945Z" fill="white"/>
<path id="Vector_6" d="M62.5609 25.4936C62.5609 27.0164 62.1389 28.2201 61.2948 29.1037C60.5387 29.8904 59.5999 30.2832 58.4792 30.2832C57.2695 30.2832 56.4006 29.8596 55.8713 29.0123H55.8331V33.7291H53.7927V24.0744C53.7927 23.117 53.7668 22.1345 53.717 21.1267H55.5115L55.6254 22.5459H55.6636C56.3441 21.4766 57.3767 20.9429 58.7625 20.9429C59.8458 20.9429 60.7503 21.36 61.4738 22.1951C62.1992 23.0311 62.5609 24.1303 62.5609 25.4936ZM60.4823 25.5664C60.4823 24.6949 60.2813 23.9764 59.8775 23.4109C59.4363 22.8212 58.8438 22.5264 58.1012 22.5264C57.5978 22.5264 57.1403 22.6906 56.7317 23.0143C56.3221 23.3409 56.0541 23.7673 55.9288 24.2955C55.8656 24.5418 55.834 24.7434 55.834 24.902V26.395C55.834 27.0463 56.0388 27.5958 56.4484 28.0447C56.858 28.4935 57.3901 28.7175 58.0447 28.7175C58.8132 28.7175 59.4113 28.4282 59.8392 27.8515C60.2679 27.274 60.4823 26.5126 60.4823 25.5664Z" fill="white"/>
<path id="Vector_7" d="M73.1241 25.4936C73.1241 27.0164 72.7022 28.2201 71.857 29.1037C71.1017 29.8904 70.1629 30.2832 69.0425 30.2832C67.833 30.2832 66.9638 29.8596 66.4355 29.0123H66.3969V33.7291H64.3568V24.0744C64.3568 23.117 64.3308 22.1345 64.2815 21.1267H66.0756L66.1894 22.5459H66.228C66.9075 21.4766 67.9399 20.9429 69.3266 20.9429C70.4089 20.9429 71.3136 21.36 72.0386 22.1951C72.7616 23.0311 73.1241 24.1303 73.1241 25.4936ZM71.0454 25.5664C71.0454 24.6949 70.8436 23.9764 70.4399 23.4109C69.9984 22.8212 69.4082 22.5264 68.6642 22.5264C68.16 22.5264 67.7033 22.6906 67.294 23.0143C66.8841 23.3409 66.6171 23.7673 66.4918 24.2955C66.4298 24.5418 66.3969 24.7434 66.3969 24.902V26.395C66.3969 27.0463 66.6019 27.5958 67.0099 28.0447C67.4192 28.4926 67.9513 28.7175 68.6079 28.7175C69.3765 28.7175 69.9743 28.4282 70.4026 27.8515C70.8309 27.274 71.0454 26.5126 71.0454 25.5664Z" fill="white"/>
<path id="Vector_8" d="M84.9303 26.5986C84.9303 27.6549 84.5546 28.5143 83.7992 29.1777C82.9693 29.9027 81.8141 30.2648 80.33 30.2648C78.9598 30.2648 77.8609 30.0072 77.0291 29.4912L77.5022 27.8332C78.398 28.3613 79.3805 28.6263 80.4515 28.6263C81.2201 28.6263 81.8179 28.4565 82.2481 28.1187C82.6757 27.7809 82.8889 27.3274 82.8889 26.762C82.8889 26.2581 82.713 25.8335 82.3601 25.4892C82.0083 25.1449 81.4219 24.8248 80.6027 24.529C78.3727 23.7182 77.2587 22.5303 77.2587 20.9683C77.2587 19.9475 77.6496 19.1105 78.4316 18.4592C79.2103 17.807 80.2497 17.4813 81.5491 17.4813C82.708 17.4813 83.6708 17.6782 84.4394 18.071L83.9296 19.6928C83.2115 19.3121 82.3999 19.1217 81.4921 19.1217C80.7741 19.1217 80.213 19.2943 79.8113 19.6377C79.4716 19.9447 79.3014 20.3189 79.3014 20.7621C79.3014 21.2529 79.4956 21.6588 79.8859 21.9779C80.2256 22.2728 80.8431 22.5919 81.7388 22.9363C82.8345 23.3664 83.6392 23.8694 84.1573 24.446C84.6729 25.0208 84.9303 25.7402 84.9303 26.5986Z" fill="white"/>
<path id="Vector_9" d="M91.6788 22.6199H89.4299V26.9671C89.4299 28.0729 89.8259 28.6253 90.6205 28.6253C90.9849 28.6253 91.2873 28.5945 91.527 28.5329L91.5833 30.0436C91.1816 30.1901 90.6521 30.2638 89.9967 30.2638C89.1908 30.2638 88.5607 30.024 88.1065 29.5454C87.6535 29.0657 87.4258 28.2614 87.4258 27.1314V22.618H86.0859V21.1251H87.4258V19.4856L89.4299 18.8959V21.1251H91.6788V22.6199Z" fill="white"/>
<path id="Vector_10" d="M101.827 25.5301C101.827 26.9064 101.424 28.0363 100.618 28.92C99.7724 29.8298 98.6508 30.2833 97.2527 30.2833C95.9053 30.2833 94.8323 29.8475 94.0321 28.976C93.2325 28.1045 92.832 27.0044 92.832 25.6784C92.832 24.2909 93.2439 23.1544 94.0694 22.2707C94.8937 21.3862 96.0058 20.9438 97.4039 20.9438C98.7514 20.9438 99.8357 21.3797 100.654 22.2521C101.437 23.0984 101.827 24.191 101.827 25.5301ZM99.7104 25.5944C99.7104 24.7687 99.5295 24.0604 99.1632 23.4698C98.7349 22.755 98.1238 22.3986 97.3312 22.3986C96.5113 22.3986 95.8882 22.756 95.4605 23.4698C95.0936 24.0613 94.9127 24.7808 94.9127 25.6317C94.9127 26.4575 95.0936 27.1658 95.4605 27.7555C95.9015 28.4703 96.5176 28.8267 97.3128 28.8267C98.0922 28.8267 98.7039 28.4628 99.1448 27.7368C99.5206 27.135 99.7104 26.4193 99.7104 25.5944Z" fill="white"/>
<path id="Vector_11" d="M108.456 22.8763C108.254 22.8399 108.039 22.8212 107.813 22.8212C107.095 22.8212 106.54 23.0853 106.149 23.6143C105.81 24.0809 105.64 24.6706 105.64 25.3825V30.0807H103.6L103.619 23.9465C103.619 22.9145 103.594 21.9748 103.542 21.1276H105.32L105.395 22.8408H105.451C105.666 22.252 106.006 21.778 106.471 21.4225C106.926 21.1024 107.417 20.9429 107.946 20.9429C108.135 20.9429 108.305 20.9559 108.456 20.9792V22.8763Z" fill="white"/>
<path id="Vector_12" d="M117.581 25.1803C117.581 25.5367 117.557 25.8372 117.507 26.0826H111.385C111.409 26.9672 111.705 27.6436 112.274 28.1102C112.789 28.5273 113.457 28.7363 114.276 28.7363C115.182 28.7363 116.009 28.5954 116.753 28.3127L117.072 29.6937C116.203 30.0632 115.177 30.247 113.993 30.247C112.569 30.247 111.451 29.8383 110.638 29.0218C109.827 28.2054 109.42 27.109 109.42 25.7336C109.42 24.3834 109.798 23.259 110.555 22.3623C111.347 21.405 112.418 20.9263 113.765 20.9263C115.089 20.9263 116.091 21.405 116.771 22.3623C117.31 23.1228 117.581 24.0634 117.581 25.1803ZM115.635 24.6643C115.649 24.0746 115.516 23.5651 115.239 23.1349C114.886 22.5816 114.344 22.3054 113.613 22.3054C112.946 22.3054 112.404 22.575 111.99 23.1162C111.65 23.5464 111.447 24.0624 111.385 24.6633H115.635V24.6643Z" fill="white"/>
<path id="Vector_13" d="M47.6164 10.0238C47.6164 11.122 47.2786 11.9488 46.6039 12.504C45.979 13.0163 45.0909 13.2728 43.9405 13.2728C43.3701 13.2728 42.8821 13.2486 42.4734 13.2V7.19929C43.0065 7.11528 43.5807 7.07239 44.2009 7.07239C45.2966 7.07239 46.1225 7.30475 46.6795 7.7694C47.3035 8.29478 47.6164 9.04588 47.6164 10.0238ZM46.559 10.0508C46.559 9.3389 46.3656 8.79302 45.979 8.41232C45.5923 8.03256 45.0277 7.84221 44.2841 7.84221C43.9682 7.84221 43.6993 7.86271 43.4764 7.90566V12.4676C43.5998 12.4863 43.8257 12.4946 44.1539 12.4946C44.9215 12.4946 45.5139 12.2865 45.9311 11.8704C46.3484 11.4542 46.559 10.8477 46.559 10.0508Z" fill="white"/>
<path id="Vector_14" d="M53.2294 10.9831C53.2294 11.6596 53.0312 12.2139 52.635 12.6487C52.2197 13.0956 51.6694 13.3187 50.9823 13.3187C50.32 13.3187 49.7927 13.105 49.3994 12.6757C49.007 12.2475 48.8108 11.7071 48.8108 11.0559C48.8108 10.3747 49.0127 9.81577 49.4185 9.38186C49.8243 8.94802 50.3698 8.73059 51.0569 8.73059C51.7192 8.73059 52.2513 8.94429 52.6542 9.37256C53.037 9.78869 53.2294 10.3262 53.2294 10.9831ZM52.1891 11.0148C52.1891 10.6089 52.0992 10.2609 51.9202 9.9707C51.7096 9.61985 51.4101 9.44443 51.0206 9.44443C50.6177 9.44443 50.3114 9.61985 50.1009 9.9707C49.921 10.2609 49.8319 10.6145 49.8319 11.0325C49.8319 11.4384 49.9219 11.7865 50.1009 12.0767C50.3181 12.4275 50.6206 12.6029 51.011 12.6029C51.3938 12.6029 51.6943 12.4247 51.9106 12.0674C52.0963 11.7715 52.1891 11.4207 52.1891 11.0148Z" fill="white"/>
<path id="Vector_15" d="M60.7425 8.82007L59.3309 13.2187H58.4121L57.8274 11.3086C57.6791 10.8318 57.5585 10.3578 57.4647 9.88753H57.4465C57.3594 10.3708 57.2388 10.844 57.0838 11.3086L56.4627 13.2187H55.5334L54.2061 8.82007H55.2368L55.7468 10.9112C55.8703 11.4057 55.9717 11.8769 56.0531 12.3229H56.0713C56.1459 11.9553 56.2694 11.4868 56.4435 10.9205L57.0838 8.82102H57.9011L58.5146 10.8757C58.6629 11.3768 58.7835 11.8592 58.8763 12.3238H58.9041C58.972 11.8713 59.0744 11.3889 59.2103 10.8757L59.7577 8.82102H60.7425V8.82007Z" fill="white"/>
<path id="Vector_16" d="M65.9436 13.2189H64.9403V10.6996C64.9403 9.92322 64.6379 9.53505 64.0313 9.53505C63.7336 9.53505 63.4934 9.64139 63.3068 9.85509C63.1221 10.0688 63.0283 10.3207 63.0283 10.609V13.218H62.0253V10.0772C62.0253 9.69086 62.0129 9.27189 61.989 8.81843H62.8704L62.9173 9.50614H62.9451C63.0618 9.29245 63.236 9.11607 63.4647 8.97519C63.7365 8.81097 64.0408 8.72791 64.3741 8.72791C64.7948 8.72791 65.1453 8.86037 65.4236 9.12632C65.7703 9.45199 65.9436 9.93815 65.9436 10.5839V13.2189Z" fill="white"/>
<path id="Vector_17" d="M68.7113 13.2188H67.7092V6.80188H68.7113V13.2188Z" fill="white"/>
<path id="Vector_18" d="M74.6141 10.9831C74.6141 11.6596 74.4161 12.2139 74.0194 12.6487C73.6044 13.0956 73.0528 13.3187 72.3671 13.3187C71.7035 13.3187 71.1765 13.105 70.7836 12.6757C70.3914 12.2475 70.1953 11.7071 70.1953 11.0559C70.1953 10.3747 70.3971 9.81577 70.8032 9.38186C71.2088 8.94802 71.7541 8.73059 72.4404 8.73059C73.1041 8.73059 73.6348 8.94429 74.0391 9.37256C74.4218 9.78869 74.6141 10.3262 74.6141 10.9831ZM73.5728 11.0148C73.5728 10.6089 73.483 10.2609 73.304 9.9707C73.0939 9.61985 72.7934 9.44443 72.405 9.44443C72.0014 9.44443 71.6952 9.61985 71.4852 9.9707C71.3055 10.2609 71.2163 10.6145 71.2163 11.0325C71.2163 11.4384 71.3062 11.7865 71.4852 12.0767C71.7028 12.4275 72.0052 12.6029 72.3955 12.6029C72.7783 12.6029 73.0781 12.4247 73.2945 12.0674C73.4811 11.7715 73.5728 11.4207 73.5728 11.0148Z" fill="white"/>
<path id="Vector_19" d="M79.4661 13.2188H78.5653L78.4907 12.7121H78.4628C78.1547 13.1162 77.7157 13.3187 77.1451 13.3187C76.7193 13.3187 76.3746 13.1852 76.1152 12.9202C75.8799 12.6795 75.7622 12.3799 75.7622 12.0244C75.7622 11.4869 75.9918 11.0773 76.4543 10.7937C76.9155 10.51 77.5645 10.3709 78.3996 10.3775V10.2954C78.3996 9.71594 78.0877 9.42665 77.4627 9.42665C77.0179 9.42665 76.6257 9.53584 76.2866 9.75232L76.0829 9.11035C76.5017 8.85749 77.0198 8.73059 77.6303 8.73059C78.8095 8.73059 79.401 9.33707 79.401 10.5501V12.17C79.401 12.6095 79.4231 12.9594 79.4661 13.2188ZM78.4249 11.7071V11.0288C77.3184 11.0101 76.7649 11.3059 76.7649 11.9153C76.7649 12.1448 76.8282 12.3165 76.9578 12.4312C77.0869 12.546 77.2514 12.6029 77.4475 12.6029C77.6676 12.6029 77.8732 12.5349 78.0611 12.3995C78.2496 12.2633 78.3654 12.0907 78.4084 11.8788C78.4192 11.8313 78.4249 11.7734 78.4249 11.7071Z" fill="white"/>
<path id="Vector_20" d="M85.1689 13.2188H84.2788L84.232 12.5125H84.2041C83.9195 13.0499 83.4355 13.3187 82.7548 13.3187C82.2114 13.3187 81.7585 13.1105 81.3998 12.6944C81.0411 12.2782 80.8621 11.738 80.8621 11.0745C80.8621 10.3626 81.0563 9.78592 81.4466 9.3455C81.8249 8.93493 82.288 8.72965 82.839 8.72965C83.445 8.72965 83.8689 8.92842 84.1099 9.32683H84.1295V6.80188H85.1334V12.0338C85.1334 12.462 85.1448 12.8567 85.1689 13.2188ZM84.1295 11.3638V10.6304C84.1295 10.5035 84.12 10.4008 84.1017 10.3224C84.0454 10.0873 83.9233 9.88948 83.7385 9.72993C83.5519 9.57039 83.3273 9.49011 83.068 9.49011C82.6935 9.49011 82.4012 9.63479 82.1855 9.92497C81.9723 10.2151 81.8641 10.5856 81.8641 11.0382C81.8641 11.473 81.9666 11.8257 82.1722 12.0972C82.3892 12.3865 82.6821 12.5311 83.049 12.5311C83.3779 12.5311 83.6411 12.4107 83.841 12.1691C84.0346 11.946 84.1295 11.6773 84.1295 11.3638Z" fill="white"/>
<path id="Vector_21" d="M93.7464 10.9831C93.7464 11.6596 93.5484 12.2139 93.1524 12.6487C92.7368 13.0956 92.1877 13.3187 91.4994 13.3187C90.8383 13.3187 90.3107 13.105 89.9166 12.6757C89.5237 12.2475 89.3276 11.7071 89.3276 11.0559C89.3276 10.3747 89.5294 9.81577 89.9356 9.38186C90.3411 8.94802 90.887 8.73059 91.5747 8.73059C92.2364 8.73059 92.769 8.94429 93.1714 9.37256C93.5541 9.78869 93.7464 10.3262 93.7464 10.9831ZM92.707 11.0148C92.707 10.6089 92.6172 10.2609 92.4382 9.9707C92.2269 9.61985 91.9283 9.44443 91.5373 9.44443C91.1356 9.44443 90.8294 9.61985 90.6182 9.9707C90.4379 10.2609 90.3487 10.6145 90.3487 11.0325C90.3487 11.4384 90.4391 11.7865 90.6182 12.0767C90.8351 12.4275 91.1375 12.6029 91.5279 12.6029C91.9106 12.6029 92.2123 12.4247 92.4287 12.0674C92.6134 11.7715 92.707 11.4207 92.707 11.0148Z" fill="white"/>
<path id="Vector_22" d="M99.1403 13.2189H98.1383V10.6996C98.1383 9.92322 97.8359 9.53505 97.228 9.53505C96.9306 9.53505 96.6902 9.64139 96.5043 9.85509C96.3189 10.0688 96.2259 10.3207 96.2259 10.609V13.218H95.2219V10.0772C95.2219 9.69086 95.2106 9.27189 95.1865 8.81843H96.0671L96.1139 9.50614H96.1418C96.2594 9.29245 96.4334 9.11607 96.6618 8.97519C96.9344 8.81097 97.2374 8.72791 97.5715 8.72791C97.9915 8.72791 98.342 8.86037 98.6203 9.12632C98.9676 9.45199 99.1403 9.93815 99.1403 10.5839V13.2189Z" fill="white"/>
<path id="Vector_23" d="M105.889 9.5529H104.784V11.6897C104.784 12.2328 104.98 12.5043 105.369 12.5043C105.549 12.5043 105.699 12.4894 105.816 12.4586L105.842 13.2004C105.643 13.2732 105.383 13.3096 105.063 13.3096C104.667 13.3096 104.359 13.192 104.135 12.9568C103.911 12.7217 103.801 12.3261 103.801 11.7709V9.5529H103.141V8.82047H103.801V8.01427L104.783 7.72498V8.81952H105.888V9.5529H105.889Z" fill="white"/>
<path id="Vector_24" d="M111.195 13.2188H110.192V10.7181C110.192 9.92965 109.889 9.5349 109.283 9.5349C108.818 9.5349 108.501 9.76352 108.326 10.2208C108.297 10.3169 108.279 10.4344 108.279 10.5725V13.2179H107.277V6.80188H108.279V9.45279H108.299C108.614 8.97042 109.067 8.72965 109.654 8.72965C110.069 8.72965 110.412 8.86218 110.686 9.12807C111.025 9.45936 111.195 9.95204 111.195 10.6033V13.2188Z" fill="white"/>
<path id="Vector_25" d="M116.676 10.8116C116.676 10.987 116.662 11.1345 116.639 11.2549H113.631C113.644 11.6897 113.788 12.0209 114.066 12.2505C114.321 12.4558 114.649 12.5584 115.051 12.5584C115.496 12.5584 115.902 12.4893 116.268 12.3503L116.425 13.0296C115.997 13.2107 115.493 13.3011 114.91 13.3011C114.212 13.3011 113.661 13.1005 113.263 12.6993C112.864 12.298 112.665 11.7596 112.665 11.0841C112.665 10.4207 112.85 9.86826 113.222 9.42783C113.611 8.95755 114.136 8.72241 114.799 8.72241C115.449 8.72241 115.941 8.95755 116.274 9.42783C116.543 9.80107 116.676 10.2629 116.676 10.8116ZM115.719 10.5588C115.727 10.2686 115.661 10.0185 115.525 9.80759C115.35 9.53607 115.085 9.39987 114.727 9.39987C114.4 9.39987 114.133 9.53234 113.928 9.79829C113.762 10.0101 113.663 10.2629 113.631 10.5588H115.719Z" fill="white"/>
</g>
</g>
</g>
</g>
<defs>
<clipPath id="clip0_30_5238">
<rect width="129.052" height="37.324" fill="white" transform="translate(0.673828 0.684326)"/>
</clipPath>
</defs>
</svg>
