<svg width="17" height="17" viewBox="0 0 17 17" fill="none" xmlns="http://www.w3.org/2000/svg">
<g id="coin">
<path id="Vector" d="M8.16374 14.6972C11.8456 14.6972 14.8304 11.7125 14.8304 8.03056C14.8304 4.34866 11.8456 1.36389 8.16374 1.36389C4.48184 1.36389 1.49707 4.34866 1.49707 8.03056C1.49707 11.7125 4.48184 14.6972 8.16374 14.6972Z" fill="#FEBC00"/>
<path id="Vector_2" d="M8.83049 7.36381H7.49715V6.69714H9.49715C9.67396 6.69714 9.84353 6.62691 9.96856 6.50188C10.0936 6.37686 10.1638 6.20729 10.1638 6.03048C10.1638 5.85367 10.0936 5.6841 9.96856 5.55907C9.84353 5.43405 9.67396 5.36381 9.49715 5.36381H8.83049C8.83049 5.187 8.76025 5.01743 8.63522 4.89241C8.5102 4.76738 8.34063 4.69714 8.16382 4.69714C7.98701 4.69714 7.81744 4.76738 7.69241 4.89241C7.56739 5.01743 7.49715 5.187 7.49715 5.36381C7.14353 5.36381 6.80439 5.50429 6.55434 5.75433C6.30429 6.00438 6.16382 6.34352 6.16382 6.69714V7.36381C6.16382 7.71743 6.30429 8.05657 6.55434 8.30662C6.80439 8.55667 7.14353 8.69714 7.49715 8.69714H8.83049V9.36381H6.83049C6.65367 9.36381 6.4841 9.43405 6.35908 9.55907C6.23406 9.6841 6.16382 9.85367 6.16382 10.0305C6.16382 10.2073 6.23406 10.3769 6.35908 10.5019C6.4841 10.6269 6.65367 10.6971 6.83049 10.6971H7.49715C7.49715 10.874 7.56739 11.0435 7.69241 11.1685C7.81744 11.2936 7.98701 11.3638 8.16382 11.3638C8.34063 11.3638 8.5102 11.2936 8.63522 11.1685C8.76025 11.0435 8.83049 10.874 8.83049 10.6971C9.18411 10.6971 9.52325 10.5567 9.77329 10.3066C10.0233 10.0566 10.1638 9.71743 10.1638 9.36381V8.69714C10.1638 8.34352 10.0233 8.00438 9.77329 7.75433C9.52325 7.50429 9.18411 7.36381 8.83049 7.36381Z" fill="#FFF5BF"/>
</g>
</svg>
