<svg width="130" height="39" viewBox="0 0 130 39" fill="none" xmlns="http://www.w3.org/2000/svg">
<g id="googleplay" clip-path="url(#clip0_30_5223)">
<path id="Vector" d="M124.667 1.08301H5.73603C3.11567 1.08301 0.991455 3.20723 0.991455 5.82758V33.0298C0.991455 35.6501 3.11567 37.7744 5.73603 37.7744H124.667C127.287 37.7744 129.411 35.6501 129.411 33.0298V5.82758C129.411 3.20723 127.287 1.08301 124.667 1.08301Z" fill="black" stroke="#A7A6A7" stroke-width="1.09223"/>
<path id="Vector_2" d="M45.9905 10.3254C45.9905 11.1046 45.7516 11.7286 45.2809 12.1939C44.7397 12.7456 44.0349 13.0232 43.1712 13.0232C42.3457 13.0232 41.6408 12.741 41.0626 12.1846C40.4832 11.6201 40.1941 10.9273 40.1941 10.098C40.1941 9.26869 40.4832 8.57586 41.0626 8.016C41.6408 7.455 42.3457 7.17273 43.1712 7.17273C43.5821 7.17273 43.9739 7.25554 44.3479 7.40952C44.7206 7.56463 45.024 7.77459 45.2438 8.03352L44.7445 8.52569C44.361 8.08362 43.8389 7.86556 43.1712 7.86556C42.569 7.86556 42.047 8.07085 41.6038 8.48489C41.1653 8.90013 40.9456 9.43779 40.9456 10.098C40.9456 10.7582 41.1653 11.3005 41.6038 11.7158C42.047 12.1251 42.569 12.3351 43.1712 12.3351C43.8103 12.3351 44.3479 12.1251 44.772 11.7111C45.0515 11.437 45.2104 11.0591 45.2522 10.5762H43.1712V9.90206H45.9475C45.981 10.0478 45.9905 10.1889 45.9905 10.3254Z" fill="white" stroke="white" stroke-width="1.09223" stroke-miterlimit="10"/>
<path id="Vector_3" d="M50.3923 7.98767H47.7844V9.76056H50.1355V10.4347H47.7844V12.2076H50.3923V12.8946H47.0461V7.30066H50.3923V7.98767Z" fill="white" stroke="white" stroke-width="1.09223" stroke-miterlimit="10"/>
<path id="Vector_4" d="M53.5054 12.8946H52.7671V7.98767H51.1675V7.30066H55.1062V7.98767H53.5054V12.8946Z" fill="white" stroke="white" stroke-width="1.09223" stroke-miterlimit="10"/>
<path id="Vector_5" d="M57.9573 12.8946V7.30066H58.6944V12.8946H57.9573Z" fill="white" stroke="white" stroke-width="1.09223" stroke-miterlimit="10"/>
<path id="Vector_6" d="M61.96 12.8946H61.2277V7.98767H59.6221V7.30066H63.5656V7.98767H61.96V12.8946Z" fill="white" stroke="white" stroke-width="1.09223" stroke-miterlimit="10"/>
<path id="Vector_7" d="M71.0203 12.1753C70.4548 12.741 69.7551 13.0232 68.9201 13.0232C68.08 13.0232 67.3803 12.741 66.8147 12.1753C66.2511 11.6107 65.9702 10.918 65.9702 10.098C65.9702 9.27799 66.2511 8.58522 66.8147 8.02068C67.3803 7.455 68.08 7.17273 68.9201 7.17273C69.7501 7.17273 70.4504 7.455 71.0153 8.02536C71.584 8.59452 71.8649 9.28267 71.8649 10.098C71.8649 10.918 71.584 11.6107 71.0203 12.1753ZM67.3607 11.7064C67.7864 12.1251 68.3033 12.3351 68.9201 12.3351C69.5318 12.3351 70.0537 12.1251 70.4744 11.7064C70.8982 11.2877 71.1133 10.75 71.1133 10.098C71.1133 9.44595 70.8982 8.90829 70.4744 8.48957C70.0537 8.07084 69.5318 7.86088 68.9201 7.86088C68.3033 7.86088 67.7864 8.07084 67.3607 8.48957C66.9368 8.90829 66.7218 9.44595 66.7218 10.098C66.7218 10.75 66.9368 11.2877 67.3607 11.7064Z" fill="white" stroke="white" stroke-width="1.09223" stroke-miterlimit="10"/>
<path id="Vector_8" d="M72.9023 12.8946V7.30066H73.7988L76.5841 11.6512H76.6164L76.5841 10.5759V7.30066H77.3218V12.8946H76.5519L73.6349 8.32941H73.6026L73.6349 9.40946V12.8946H72.9023Z" fill="white" stroke="white" stroke-width="1.09223" stroke-miterlimit="10"/>
<path id="Vector_9" d="M65.7894 21.0641C63.5449 21.0641 61.7112 22.7321 61.7112 25.0333C61.7112 27.3159 63.5449 29.0013 65.7894 29.0013C68.0389 29.0013 69.8729 27.3159 69.8729 25.0333C69.8729 22.7321 68.0389 21.0641 65.7894 21.0641ZM65.7894 27.4384C64.5583 27.4384 63.4984 26.4458 63.4984 25.0333C63.4984 23.6021 64.5583 22.6271 65.7894 22.6271C67.0211 22.6271 68.0858 23.6021 68.0858 25.0333C68.0858 26.4458 67.0211 27.4384 65.7894 27.4384ZM56.8908 21.0641C54.6413 21.0641 52.8123 22.7321 52.8123 25.0333C52.8123 27.3159 54.6413 29.0013 56.8908 29.0013C59.1391 29.0013 60.9693 27.3159 60.9693 25.0333C60.9693 22.7321 59.1391 21.0641 56.8908 21.0641ZM56.8908 27.4384C55.658 27.4384 54.5948 26.4458 54.5948 25.0333C54.5948 23.6021 55.658 22.6271 56.8908 22.6271C58.1225 22.6271 59.1822 23.6021 59.1822 25.0333C59.1822 26.4458 58.1225 27.4384 56.8908 27.4384ZM46.3016 22.2807V23.9672H50.4266C50.306 24.9097 49.9834 25.6025 49.4889 26.0854C48.8868 26.6686 47.949 27.3159 46.3016 27.3159C43.763 27.3159 41.7751 25.3156 41.7751 22.837C41.7751 20.3585 43.763 18.3581 46.3016 18.3581C47.6742 18.3581 48.6729 18.8819 49.41 19.5607L50.6274 18.3722C49.5964 17.411 48.225 16.6727 46.3016 16.6727C42.8204 16.6727 39.8948 19.4382 39.8948 22.837C39.8948 26.2358 42.8204 29.0013 46.3016 29.0013C48.1832 29.0013 49.5964 28.3995 50.7074 27.2704C51.8459 26.1588 52.2007 24.5959 52.2007 23.3339C52.2007 22.942 52.1673 22.5816 52.1076 22.2807H46.3016ZM89.6021 23.5882C89.2668 22.7006 88.2312 21.0641 86.1215 21.0641C84.0307 21.0641 82.2897 22.6726 82.2897 25.0333C82.2897 27.2564 84.013 29.0013 86.322 29.0013C88.1888 29.0013 89.2668 27.8898 89.7096 27.2424L88.3242 26.3408C87.8618 27.001 87.2323 27.4384 86.322 27.4384C85.4174 27.4384 84.7689 27.0336 84.3533 26.2358L89.79 24.0395L89.6021 23.5882ZM84.0591 24.9097C84.013 23.3794 85.2763 22.5956 86.1822 22.5956C86.892 22.5956 87.4936 22.942 87.6948 23.4377L84.0591 24.9097ZM79.6404 28.7599H81.4275V17.0961H79.6404V28.7599ZM76.7133 21.9483H76.6538C76.2521 21.484 75.4867 21.0641 74.5162 21.0641C72.4811 21.0641 70.6194 22.809 70.6194 25.0461C70.6194 27.2704 72.4811 29.0013 74.5162 29.0013C75.4867 29.0013 76.2521 28.5779 76.6538 28.0997H76.7133V28.6689C76.7133 30.1863 75.8833 31.0017 74.5441 31.0017C73.4522 31.0017 72.7747 30.2318 72.495 29.5845L70.9407 30.2178C71.3892 31.2699 72.5754 32.5646 74.5441 32.5646C76.6393 32.5646 78.4074 31.3609 78.4074 28.4321V21.3056H76.7133V21.9483ZM74.6693 27.4384C73.4376 27.4384 72.4065 26.4318 72.4065 25.0461C72.4065 23.6476 73.4376 22.6271 74.6693 22.6271C75.8833 22.6271 76.8398 23.6476 76.8398 25.0461C76.8398 26.4318 75.8833 27.4384 74.6693 27.4384ZM97.9696 17.0961H93.6951V28.7599H95.4777V24.3405H97.9696C99.949 24.3405 101.891 22.942 101.891 20.7177C101.891 18.4946 99.9446 17.0961 97.9696 17.0961ZM98.0164 22.7181H95.4777V18.7186H98.0164C99.3468 18.7186 100.107 19.7974 100.107 20.7177C100.107 21.6205 99.3468 22.7181 98.0164 22.7181ZM109.035 21.042C107.747 21.042 106.407 21.5972 105.856 22.8277L107.438 23.4751C107.779 22.8277 108.404 22.6177 109.067 22.6177C109.991 22.6177 110.929 23.1601 110.943 24.1177V24.2402C110.621 24.0582 109.93 23.7888 109.081 23.7888C107.377 23.7888 105.641 24.7044 105.641 26.4131C105.641 27.9761 107.037 28.9826 108.606 28.9826C109.805 28.9826 110.467 28.4543 110.882 27.8396H110.943V28.7412H112.665V24.267C112.665 22.199 111.083 21.042 109.035 21.042ZM108.819 27.4337C108.236 27.4337 107.424 27.1515 107.424 26.4458C107.424 25.543 108.437 25.1966 109.314 25.1966C110.099 25.1966 110.467 25.3657 110.943 25.5885C110.803 26.6686 109.851 27.4337 108.819 27.4337ZM118.937 21.2974L116.888 26.3536H116.827L114.709 21.2974H112.787L115.969 28.3633L114.154 32.2952H116.016L120.92 21.2974H118.937ZM102.87 28.7599H104.657V17.0961H102.87V28.7599Z" fill="white"/>
<path id="Vector_10" d="M10.6485 7.80121C10.3678 8.0881 10.2053 8.53485 10.2053 9.11337V29.7488C10.2053 30.3274 10.3678 30.7741 10.6485 31.061L10.7178 31.124L22.5614 19.5652V19.2923L10.7178 7.73352L10.6485 7.80121Z" fill="url(#paint0_linear_30_5223)"/>
<path id="Vector_11" d="M26.5021 23.4203L22.5586 19.5654V19.2925L26.5069 15.4376L26.5953 15.4878L31.2711 18.0853C32.6055 18.8225 32.6055 20.0355 31.2711 20.7773L26.5953 23.3701L26.5021 23.4203Z" fill="url(#paint1_linear_30_5223)"/>
<path id="Vector_12" d="M26.5966 23.37L22.5599 19.4288L10.647 31.0611C11.0902 31.516 11.813 31.5708 12.6349 31.1159L26.5966 23.37Z" fill="url(#paint2_linear_30_5223)"/>
<path id="Vector_13" d="M26.5966 15.4875L12.6349 7.74156C11.813 7.29133 11.0902 7.34618 10.647 7.80108L22.5599 19.4286L26.5966 15.4875Z" fill="url(#paint3_linear_30_5223)"/>
</g>
<defs>
<linearGradient id="paint0_linear_30_5223" x1="21.5099" y1="29.9637" x2="5.8547" y2="13.9292" gradientUnits="userSpaceOnUse">
<stop stop-color="#00A0FF"/>
<stop offset="0.0066" stop-color="#00A1FF"/>
<stop offset="0.2601" stop-color="#00BEFF"/>
<stop offset="0.5122" stop-color="#00D2FF"/>
<stop offset="0.7604" stop-color="#00DFFF"/>
<stop offset="1" stop-color="#00E3FF"/>
</linearGradient>
<linearGradient id="paint1_linear_30_5223" x1="33.0087" y1="19.4276" x2="9.8835" y2="19.4276" gradientUnits="userSpaceOnUse">
<stop stop-color="#FFE000"/>
<stop offset="0.4087" stop-color="#FFBD00"/>
<stop offset="0.7754" stop-color="#FFA500"/>
<stop offset="1" stop-color="#FF9C00"/>
</linearGradient>
<linearGradient id="paint2_linear_30_5223" x1="24.4016" y1="17.2864" x2="3.17191" y2="-4.45773" gradientUnits="userSpaceOnUse">
<stop stop-color="#FF3A44"/>
<stop offset="1" stop-color="#C31162"/>
</linearGradient>
<linearGradient id="paint3_linear_30_5223" x1="7.64828" y1="37.9262" x2="17.1282" y2="28.2166" gradientUnits="userSpaceOnUse">
<stop stop-color="#32A071"/>
<stop offset="0.0685" stop-color="#2DA771"/>
<stop offset="0.4762" stop-color="#15CF74"/>
<stop offset="0.8009" stop-color="#06E775"/>
<stop offset="1" stop-color="#00F076"/>
</linearGradient>
<clipPath id="clip0_30_5223">
<rect width="129.052" height="37.324" fill="white" transform="translate(0.673828 0.766724)"/>
</clipPath>
</defs>
</svg>
