<svg width="21" height="21" viewBox="0 0 21 21" fill="none" xmlns="http://www.w3.org/2000/svg">
<g id="Group">
<path id="Vector" d="M10.5012 20.7009C16.0241 20.7009 20.5012 16.2238 20.5012 10.7009C20.5012 5.17808 16.0241 0.700928 10.5012 0.700928C4.97837 0.700928 0.501221 5.17808 0.501221 10.7009C0.501221 16.2238 4.97837 20.7009 10.5012 20.7009Z" fill="#F7931A"/>
<path id="Vector_2" d="M14.8962 9.46343C15.0925 8.15343 14.0943 7.44905 12.7306 6.97905L13.1731 5.20405L12.0931 4.9353L11.6618 6.66343C11.3781 6.59218 11.0868 6.52593 10.7962 6.45968L11.2306 4.7203L10.1506 4.45093L9.70809 6.2253C9.47309 6.17155 9.24185 6.11905 9.0181 6.0628L9.01935 6.05718L7.52935 5.6853L7.24185 6.83905C7.24185 6.83905 8.04372 7.0228 8.02685 7.03405C8.46434 7.14343 8.5431 7.4328 8.52997 7.6628L8.02622 9.68468C8.05622 9.69218 8.09497 9.70343 8.13872 9.7203L8.02435 9.69218L7.3181 12.5247C7.26435 12.6572 7.12872 12.8566 6.82247 12.7809C6.83372 12.7965 6.03747 12.5853 6.03747 12.5853L5.50122 13.8216L6.90747 14.1722C7.16872 14.2378 7.42497 14.3066 7.67685 14.3709L7.22997 16.1659L8.30935 16.4347L8.75184 14.6597C9.04684 14.739 9.33309 14.8128 9.61309 14.8828L9.17184 16.6503L10.2518 16.919L10.6987 15.1278C12.5412 15.4766 13.9262 15.3359 14.5093 13.6697C14.9793 12.3284 14.4862 11.5541 13.5168 11.0497C14.2231 10.8872 14.7543 10.4228 14.8962 9.46343ZM12.4275 12.9247C12.0943 14.2666 9.83497 13.5409 9.10247 13.3591L9.69622 10.9809C10.4287 11.1641 12.7768 11.5259 12.4275 12.9247ZM12.7618 9.44405C12.4575 10.6647 10.5775 10.0441 9.96809 9.89218L10.5056 7.73593C11.115 7.8878 13.0793 8.17093 12.7618 9.44405Z" fill="white"/>
</g>
</svg>
