<svg width="38" height="39" viewBox="0 0 38 39" fill="none" xmlns="http://www.w3.org/2000/svg">
<g id="telegram" clip-path="url(#clip0_1_3700)">
<path id="Vector" d="M31.9351 0.580811H5.71352C2.61028 0.580811 0.0946045 3.09649 0.0946045 6.19973V32.4214C0.0946045 35.5246 2.61028 38.0403 5.71352 38.0403H31.9351C35.0384 38.0403 37.5541 35.5246 37.5541 32.4214V6.19973C37.5541 3.09649 35.0384 0.580811 31.9351 0.580811Z" fill="#37AEE2"/>
<path id="Vector_2" d="M14.6542 30.1384C13.8494 30.1384 13.9225 29.8457 13.703 29.1141L11.3618 21.432L29.2868 10.8965" fill="#C8DAEA"/>
<path id="Vector_3" d="M14.6542 30.1385C15.1663 30.1385 15.459 29.8459 15.8248 29.5532L19.1171 26.4072L15.02 23.9197" fill="#A9C9DD"/>
<path id="Vector_4" d="M15.0199 23.9195L24.8969 31.1626C25.9212 31.8211 26.7992 31.4553 27.0918 30.1384L31.1158 11.2623C31.4816 9.65273 30.4573 8.9211 29.3599 9.43324L5.87453 18.5054C4.33811 19.0908 4.33811 20.0419 5.58188 20.4077L11.6544 22.3099L25.5554 13.4572C26.2138 13.0914 26.7992 13.2377 26.3602 13.7499" fill="#F6FBFE"/>
</g>
<defs>
<clipPath id="clip0_1_3700">
<rect width="37.4595" height="37.4595" fill="white" transform="translate(0.0946045 0.580811)"/>
</clipPath>
</defs>
</svg>
