<svg width="22" height="22" viewBox="0 0 22 22" fill="none" xmlns="http://www.w3.org/2000/svg">
<g id="Website" clip-path="url(#clip0_1_3664)">
<g id="Layer 23">
<path id="Vector" d="M20.7748 10.7591C20.7748 10.9094 20.7704 11.0552 20.766 11.2011C20.7527 11.5017 20.7262 11.7934 20.6864 12.0851C20.5454 13.1789 20.2259 14.242 19.7405 15.2323C19.6742 15.3649 19.6079 15.4931 19.5372 15.6213C19.4532 15.7716 19.3692 15.9174 19.2764 16.0633C18.4364 17.4355 17.2828 18.5889 15.9105 19.4287C14.5381 20.2686 12.9861 20.7709 11.382 20.8945H11.3775C11.267 20.9034 11.161 20.9122 11.0505 20.9166C10.909 20.9211 10.7631 20.9255 10.6217 20.9255C10.6173 20.9255 10.6129 20.9211 10.6084 20.9166C10.604 20.9211 10.5996 20.9255 10.5952 20.9255C10.4493 20.9255 10.3079 20.9211 10.1664 20.9166C10.0559 20.9122 9.94983 20.9078 9.83932 20.8945C8.23301 20.7746 6.67836 20.2738 5.30402 19.4337C3.92968 18.5936 2.77517 17.4382 1.93604 16.0633C1.84763 15.9174 1.75923 15.7716 1.67967 15.6213C1.60894 15.4931 1.53822 15.3649 1.47634 15.2323V15.2279C1.39678 15.0687 1.32163 14.9008 1.25091 14.7372C0.771029 13.6173 0.501328 12.4186 0.455277 11.2011C0.446437 11.0552 0.442017 10.9094 0.442017 10.7591C0.442017 10.6088 0.446437 10.4629 0.450857 10.317C0.464117 10.0165 0.490639 9.72474 0.53042 9.43301C0.669409 8.3591 0.97982 7.31444 1.44982 6.33889C1.52496 6.1886 1.6001 6.04273 1.67967 5.89687C1.75923 5.751 1.84763 5.60072 1.93604 5.45485C2.43672 4.6341 3.05304 3.88975 3.76599 3.24476C5.43961 1.71802 7.57604 0.795292 9.8349 0.623593C9.94541 0.614752 10.0559 0.605912 10.1664 0.605912C10.3079 0.597072 10.4493 0.592651 10.5908 0.592651C10.5958 0.598111 10.6018 0.602605 10.6084 0.605912L10.6261 0.592651C10.7676 0.592651 10.909 0.597072 11.0505 0.601492C11.1654 0.605912 11.2759 0.614752 11.382 0.623593C12.8989 0.736633 14.3708 1.18991 15.6885 1.94978C17.0062 2.70964 18.1359 3.75657 18.9935 5.01283C19.0952 5.1587 19.1924 5.30456 19.2852 5.45485C19.3781 5.60514 19.4576 5.74658 19.5372 5.89687C19.6168 6.04715 19.6919 6.1886 19.7626 6.33889C19.8333 6.48917 19.9041 6.63062 19.966 6.7809C20.385 7.76025 20.6447 8.80036 20.7351 9.86177C20.7395 9.87061 20.7351 9.87945 20.7351 9.88387C20.7483 10.0297 20.7616 10.1712 20.766 10.317V10.3303C20.7704 10.4718 20.7748 10.6132 20.7748 10.7591Z" fill="#40CFFF"/>
<path id="Vector_2" d="M10.6084 20.8327L10.7013 20.8459C10.6703 20.868 10.6394 20.8945 10.6084 20.9166C10.604 20.9211 10.5996 20.9255 10.5952 20.9255C10.4493 20.9255 10.3079 20.9211 10.1664 20.9166C10.0559 20.9122 9.94982 20.9078 9.83932 20.8945C8.23301 20.7746 6.67836 20.2738 5.30402 19.4337C3.92968 18.5936 2.77517 17.4382 1.93604 16.0633C1.84763 15.9174 1.75923 15.7716 1.67967 15.6213C1.60894 15.4931 1.53822 15.3649 1.47634 15.2323V15.2279C1.39678 15.0687 1.32163 14.9008 1.25091 14.7372C0.771029 13.6173 0.501328 12.4186 0.455277 11.2011C0.446437 11.0552 0.442017 10.9094 0.442017 10.7591C0.442017 10.6088 0.446437 10.4629 0.450857 10.317C0.464117 10.0165 0.490639 9.72474 0.53042 9.43301C0.669409 8.3591 0.97982 7.31444 1.44982 6.33889C1.52496 6.1886 1.6001 6.04273 1.67967 5.89687C1.75923 5.751 1.84763 5.60072 1.93604 5.45485C2.43672 4.6341 3.05304 3.88975 3.76599 3.24476C5.43961 1.71802 7.57604 0.795292 9.8349 0.623593C9.9454 0.614752 10.0559 0.605912 10.1664 0.605912C10.3079 0.597072 10.4493 0.592651 10.5907 0.592651C10.5958 0.598111 10.6018 0.602605 10.6084 0.605912C10.6394 0.628013 10.6703 0.654534 10.7013 0.676635L10.6084 0.689895C10.4714 0.707576 10.33 0.725257 10.1929 0.751778C10.1839 0.751081 10.1748 0.752598 10.1664 0.756198C9.94098 0.79598 9.71555 0.840182 9.49455 0.897644C7.85428 1.30065 6.34086 2.10751 5.09205 3.24476C4.37909 3.88975 3.76278 4.6341 3.26209 5.45485C3.17369 5.60072 3.08528 5.74658 3.00572 5.89687C2.92616 6.04715 2.85101 6.1886 2.77587 6.33889C2.30587 7.31444 1.99546 8.3591 1.85647 9.43301C1.81669 9.72474 1.79017 10.0165 1.77691 10.317C1.77249 10.4629 1.76807 10.6088 1.76807 10.7591C1.76807 10.9094 1.77249 11.0552 1.78133 11.2011C1.82738 12.4186 2.09708 13.6173 2.57696 14.7372C2.63885 14.8875 2.70515 15.0334 2.78029 15.1792C2.85544 15.3251 2.92616 15.4754 3.00572 15.6213C3.08528 15.7671 3.17369 15.9174 3.26651 16.0633C4.65911 18.3481 6.90004 19.9883 9.49897 20.6249H9.50339C9.71998 20.6824 9.94098 20.7266 10.1664 20.7664C10.1753 20.7664 10.1841 20.7708 10.1974 20.7708C10.3344 20.7973 10.4714 20.815 10.6084 20.8327Z" fill="#14B5E0"/>
<path id="Vector_3" d="M10.6086 0.605526C10.615 0.602346 10.6207 0.598024 10.6256 0.592773L10.6086 0.605526Z" fill="#40CFFF"/>
<path id="Vector_4" d="M5.3219 7.35553C5.29338 7.45813 5.30118 7.56743 5.344 7.66494C5.37232 7.72148 5.41209 7.77151 5.4608 7.81184C5.5095 7.85217 5.56606 7.88192 5.62689 7.89921C5.66606 7.90798 5.70609 7.91243 5.74623 7.91247C5.82848 7.91253 5.90907 7.88933 5.97868 7.84552C6.0483 7.80172 6.10409 7.73912 6.13963 7.66494C6.15258 7.64106 6.16296 7.61587 6.17057 7.5898C6.2894 7.1655 6.43106 6.74792 6.59491 6.33889H10.1664V8.10696C10.1664 8.22419 10.213 8.33662 10.2959 8.41951C10.3788 8.50241 10.4912 8.54898 10.6084 8.54898C10.7257 8.54898 10.8381 8.50241 10.921 8.41951C11.0039 8.33662 11.0505 8.22419 11.0505 8.10696V6.33889H14.622C14.7858 6.74792 14.9275 7.1655 15.0463 7.5898C15.0539 7.61587 15.0643 7.64106 15.0772 7.66494C15.1128 7.73912 15.1686 7.80172 15.2382 7.84552C15.3078 7.88933 15.3884 7.91253 15.4706 7.91247C15.5108 7.91243 15.5508 7.90798 15.59 7.89921C15.6508 7.88192 15.7074 7.85217 15.7561 7.81184C15.8048 7.77151 15.8445 7.72148 15.8729 7.66494C15.9157 7.56743 15.9235 7.45813 15.895 7.35553C15.8021 7.01075 15.6916 6.6704 15.5679 6.33889H19.7626C19.6919 6.1886 19.6168 6.04273 19.5372 5.89687C19.4576 5.751 19.3737 5.60072 19.2852 5.45485H15.2054C15.0817 5.17638 14.9402 4.90233 14.7943 4.62828C14.1102 3.37419 13.2213 2.24326 12.1643 1.2822C11.9124 1.05235 11.6472 0.831341 11.382 0.623593C11.2759 0.614752 11.1654 0.605912 11.0505 0.601492C10.909 0.597072 10.7676 0.592651 10.6261 0.592651L10.6084 0.605912C10.6018 0.602605 10.5958 0.598111 10.5908 0.592651C10.4493 0.592651 10.3079 0.597072 10.1664 0.605912C10.0559 0.605912 9.94541 0.614752 9.8349 0.623593C9.71998 0.716416 9.60505 0.80482 9.49455 0.897644C9.34426 1.02141 9.19839 1.14959 9.05253 1.2822C7.99557 2.24326 7.10666 3.37419 6.42252 4.62828C6.27665 4.90233 6.13521 5.1808 6.00702 5.45485H1.93604C1.84763 5.60072 1.75923 5.74658 1.67967 5.89687C1.6001 6.04715 1.52496 6.1886 1.44982 6.33889H5.64899C5.52522 6.6704 5.41472 7.01075 5.3219 7.35553ZM11.572 1.93639C12.5551 2.83132 13.3814 3.88464 14.0164 5.05261C14.0871 5.18522 14.1578 5.31782 14.2241 5.45485H11.0505V1.48995C11.2273 1.63139 11.4041 1.78168 11.572 1.93639ZM7.20047 5.05261C7.8355 3.88464 8.66172 2.83132 9.64483 1.93639C9.8128 1.78168 9.98961 1.63139 10.1664 1.48995V5.45485H6.99272C7.05903 5.31782 7.12975 5.18522 7.20047 5.05261ZM20.766 10.317H16.7967C16.6795 10.317 16.567 10.3636 16.4841 10.4465C16.4012 10.5294 16.3547 10.6418 16.3547 10.7591C16.3547 10.8763 16.4012 10.9887 16.4841 11.0716C16.567 11.1545 16.6795 11.2011 16.7967 11.2011H20.766V10.317ZM15.5679 15.1792C15.6916 14.8477 15.8021 14.5074 15.895 14.167C15.9249 14.0623 15.9138 13.9501 15.864 13.8532C15.8376 13.7966 15.7989 13.7466 15.7507 13.7068C15.7026 13.6671 15.6461 13.6386 15.5856 13.6233C15.4873 13.5963 15.3827 13.6044 15.2899 13.6464C15.197 13.6884 15.1218 13.7615 15.0772 13.8532C15.065 13.8789 15.0547 13.9055 15.0463 13.9328C14.9283 14.3553 14.7881 14.7714 14.6264 15.1792H11.0505V13.4112C11.0505 13.2939 11.0039 13.1815 10.921 13.0986C10.8381 13.0157 10.7257 12.9692 10.6084 12.9692C10.4912 12.9692 10.3788 13.0157 10.2959 13.0986C10.213 13.1815 10.1664 13.2939 10.1664 13.4112V15.1792H6.59491C6.43106 14.7717 6.28941 14.3556 6.17057 13.9328C6.16219 13.9055 6.15185 13.8789 6.13963 13.8532C6.09583 13.7609 6.02071 13.6871 5.92762 13.6451C5.83454 13.603 5.72953 13.5953 5.63131 13.6233C5.57073 13.6386 5.51431 13.6671 5.46614 13.7068C5.41797 13.7466 5.37926 13.7966 5.35284 13.8532C5.30307 13.9501 5.29201 14.0623 5.3219 14.167C5.41472 14.5074 5.52522 14.8477 5.64457 15.1792H1.67967C1.60899 15.1791 1.53929 15.1958 1.47634 15.2279V15.2323C1.53822 15.3649 1.60894 15.4931 1.67967 15.6213C1.75923 15.7716 1.84763 15.9174 1.93604 16.0633H6.01144C6.81339 17.8284 8.00591 19.3882 9.49897 20.6249C9.49897 20.6249 9.49897 20.6293 9.50339 20.6249C9.61389 20.7177 9.7244 20.8106 9.83932 20.8945C9.94983 20.9078 10.0559 20.9122 10.1664 20.9166C10.3079 20.9211 10.4493 20.9255 10.5952 20.9255C10.5996 20.9255 10.604 20.9211 10.6084 20.9166C10.6129 20.9211 10.6173 20.9255 10.6217 20.9255C10.7631 20.9255 10.909 20.9211 11.0505 20.9166C11.161 20.9122 11.267 20.9034 11.3775 20.8945H11.382C12.1565 20.2966 12.8596 19.6114 13.4771 18.8524C14.1717 18.0015 14.7526 17.064 15.2054 16.0633H19.2764C19.3692 15.9174 19.4532 15.7716 19.5372 15.6213C19.6079 15.4931 19.6742 15.3649 19.7405 15.2323C19.6787 15.1967 19.6085 15.1784 19.5372 15.1792H15.5679ZM6.9883 16.0633H10.1664V20.0326C8.83674 18.9506 7.75325 17.5974 6.9883 16.0633ZM11.0505 20.0326V16.0633H14.2286C13.4636 17.5974 12.3801 18.9506 11.0505 20.0326ZM3.97816 10.7591C3.97816 10.6418 3.93159 10.5294 3.8487 10.4465C3.7658 10.3636 3.65337 10.317 3.53614 10.317H0.450857C0.446437 10.4629 0.442017 10.6088 0.442017 10.7591C0.442017 10.9094 0.446437 11.0552 0.455277 11.2011H3.53614C3.65337 11.2011 3.7658 11.1545 3.8487 11.0716C3.93159 10.9887 3.97816 10.8763 3.97816 10.7591Z" fill="#14B5E0"/>
<path id="Vector_5" d="M18.1229 7.66516H3.09424V13.8534H18.1229V7.66516Z" fill="#DBE6FD"/>
<path id="Vector_6" d="M5.76942 12.2252C5.7956 12.3036 5.84326 12.3731 5.90698 12.4258C5.9707 12.4785 6.04792 12.5123 6.12988 12.5233C6.21183 12.5343 6.29523 12.5221 6.37059 12.4881C6.44596 12.454 6.51027 12.3995 6.55621 12.3308L7.07249 11.5551L7.58877 12.3295C7.63471 12.3982 7.69902 12.4527 7.77438 12.4867C7.84975 12.5208 7.93314 12.533 8.0151 12.522C8.09706 12.511 8.17428 12.4772 8.238 12.4245C8.30172 12.3718 8.34938 12.3023 8.37556 12.2238L8.84056 10.8306L9.30556 12.2252C9.33174 12.3036 9.3794 12.3731 9.44312 12.4258C9.50684 12.4785 9.58407 12.5123 9.66602 12.5233C9.74798 12.5343 9.83138 12.5221 9.90674 12.4881C9.9821 12.454 10.0464 12.3995 10.0924 12.3308L10.6086 11.5551L11.1249 12.3295C11.1709 12.3982 11.2352 12.4527 11.3105 12.4867C11.3859 12.5208 11.4693 12.533 11.5512 12.522C11.6332 12.511 11.7104 12.4772 11.7741 12.4245C11.8379 12.3718 11.8855 12.3023 11.9117 12.2238L12.3767 10.8306L12.8417 12.2252C12.8679 12.3036 12.9155 12.3731 12.9793 12.4258C13.043 12.4785 13.1202 12.5123 13.2022 12.5233C13.2841 12.5343 13.3675 12.5221 13.4429 12.4881C13.5182 12.454 13.5826 12.3995 13.6285 12.3308L14.1448 11.5551L14.6611 12.3295C14.707 12.3982 14.7713 12.4527 14.8467 12.4867C14.922 12.5208 15.0054 12.533 15.0874 12.522C15.1693 12.511 15.2466 12.4772 15.3103 12.4245C15.374 12.3718 15.4217 12.3023 15.4478 12.2238L16.3319 9.57172C16.3502 9.51657 16.3575 9.45836 16.3534 9.40039C16.3492 9.34242 16.3337 9.28584 16.3077 9.23388C16.2816 9.18192 16.2456 9.13559 16.2017 9.09754C16.1578 9.05949 16.1068 9.03047 16.0516 9.01212C15.9965 8.99378 15.9383 8.98648 15.8803 8.99064C15.8223 8.99479 15.7658 9.01032 15.7138 9.03635C15.6618 9.06237 15.6155 9.09837 15.5775 9.1423C15.5394 9.18623 15.5104 9.23722 15.492 9.29236L14.8962 11.0883L14.5134 10.5137C14.4707 10.4565 14.4151 10.4101 14.3513 10.3781C14.2875 10.3461 14.2171 10.3295 14.1457 10.3295C14.0743 10.3295 14.0039 10.3461 13.94 10.3781C13.8762 10.4101 13.8207 10.4565 13.7779 10.5137L13.3951 11.0883L12.7966 9.29369C12.7935 9.28352 12.7856 9.27645 12.7816 9.26673C12.7695 9.23954 12.7547 9.21362 12.7374 9.18937C12.7223 9.1658 12.7051 9.14361 12.6861 9.12307C12.6672 9.10551 12.6468 9.08968 12.6251 9.07577C12.5995 9.05713 12.5719 9.04128 12.5429 9.02848C12.5336 9.02494 12.527 9.01743 12.5173 9.01389C12.5013 9.01108 12.4852 9.00916 12.4691 9.00815C12.4091 8.99282 12.3461 8.99282 12.2861 9.00815C12.2699 9.00916 12.2539 9.01108 12.2379 9.01389C12.2282 9.01743 12.2216 9.02494 12.2123 9.02848C12.1833 9.04128 12.1557 9.05713 12.1301 9.07577C12.1084 9.08968 12.0879 9.10551 12.0691 9.12307C12.05 9.14361 12.0329 9.1658 12.0178 9.18937C12.0005 9.21362 11.9857 9.23954 11.9736 9.26673C11.9696 9.27645 11.9617 9.28352 11.9586 9.29369L11.3601 11.0883L10.9773 10.5137C10.9345 10.4565 10.879 10.4101 10.8152 10.3781C10.7513 10.3461 10.6809 10.3295 10.6095 10.3295C10.5381 10.3295 10.4677 10.3461 10.4039 10.3781C10.34 10.4101 10.2845 10.4565 10.2418 10.5137L9.85897 11.0883L9.26048 9.29369C9.25738 9.28352 9.24943 9.27645 9.24545 9.26673C9.23348 9.23946 9.21866 9.21353 9.20125 9.18937C9.18625 9.166 9.16908 9.1441 9.14997 9.12395C9.13091 9.10611 9.11019 9.09013 9.08809 9.07622C9.06269 9.05756 9.03526 9.04184 9.00632 9.02936C8.99704 9.02538 8.9904 9.01787 8.98068 9.01433C8.96462 9.01131 8.94838 9.00939 8.93206 9.00859C8.87232 8.99326 8.80968 8.99326 8.74995 9.00859C8.73363 9.00939 8.71738 9.01131 8.70132 9.01433C8.6916 9.01787 8.68497 9.02538 8.67569 9.02936C8.64661 9.04183 8.61902 9.05755 8.59347 9.07622C8.57177 9.09013 8.55135 9.10596 8.53247 9.12351C8.49439 9.16693 8.46228 9.21524 8.437 9.26717C8.43302 9.27689 8.42506 9.28396 8.42197 9.29413L7.82392 11.0883L7.44113 10.5137C7.39837 10.4565 7.34286 10.4101 7.27902 10.3781C7.21518 10.3461 7.14477 10.3295 7.07337 10.3295C7.00198 10.3295 6.93156 10.3461 6.86772 10.3781C6.80388 10.4101 6.74838 10.4565 6.70561 10.5137L6.32283 11.0883L5.72433 9.29369C5.68729 9.18232 5.60752 9.09023 5.50258 9.03767C5.39763 8.98512 5.27611 8.9764 5.16474 9.01345C5.05337 9.05049 4.96128 9.13026 4.90872 9.23521C4.85617 9.34015 4.84745 9.46168 4.8845 9.57304L5.76942 12.2252Z" fill="#ED4C24"/>
</g>
</g>
<defs>
<clipPath id="clip0_1_3664">
<rect width="21.2169" height="21.2169" fill="white" transform="translate(0 0.150635)"/>
</clipPath>
</defs>
</svg>
